<svg xmlns="http://www.w3.org/2000/svg" fill="currentColor" xmlns:xlink="http://www.w3.org/1999/xlink" version="1.1" width="500" height="500" viewBox="0 0 500 500" xml:space="preserve">
<g transform="matrix(2.1800732772 0 0 2.1800732772 164.0429735584 35.8415764011)" id="0vAcsz5iS_RYV_TU5U3Hd"  >
<path style="stroke: rgb(0,0,0); stroke-width: 1; stroke-dasharray: none; stroke-linecap: butt; stroke-dashoffset: 0; stroke-linejoin: miter; stroke-miterlimit: 4; fill: rgb(255,255,255); fill-opacity: 0; fill-rule: nonzero; opacity: 1;" vector-effect="non-scaling-stroke"  transform=" translate(0, 0)" d="M 0 0" stroke-linecap="round" />
</g>
<g transform="matrix(2.1800732772 0 0 2.1800732772 136.212256749 52.1457414422)" id="yGmQmKoAy_bt4dmePq9Zc"  >
<path style="stroke: rgb(0,0,0); stroke-width: 1; stroke-dasharray: none; stroke-linecap: butt; stroke-dashoffset: 0; stroke-linejoin: miter; stroke-miterlimit: 4; fill: none; fill-rule: nonzero; opacity: 1;" vector-effect="non-scaling-stroke"  transform=" translate(0, 0)" d="M 0 0" stroke-linecap="round" />
</g>
<g transform="matrix(2.1800732772 0 0 2.1800732772 137.3022933876 52.1457414422)" id="ul0gCMg__5T9kTlVcDdLX"  >
<path style="stroke: rgb(0,0,0); stroke-width: 1; stroke-dasharray: none; stroke-linecap: butt; stroke-dashoffset: 0; stroke-linejoin: miter; stroke-miterlimit: 4; fill: none; fill-rule: nonzero; opacity: 1;" vector-effect="non-scaling-stroke"  transform=" translate(0, 0)" d="M 0 0" stroke-linecap="round" />
</g>
<g transform="matrix(2.1800732772 0 0 2.1800732772 135.1222201104 52.1457414422)" id="rTOwtGhO9ibfJMMGej7Wb"  >
<path style="stroke: rgb(0,0,0); stroke-width: 1; stroke-dasharray: none; stroke-linecap: butt; stroke-dashoffset: 0; stroke-linejoin: miter; stroke-miterlimit: 4; fill: none; fill-rule: nonzero; opacity: 1;" vector-effect="non-scaling-stroke"  transform=" translate(0, 0)" d="M 0 0" stroke-linecap="round" />
</g>
<g transform="matrix(1 0 0 1 250 258.3744764422)" id="SFK3hyfBnT8TkzFcRccXX"  >
<linearGradient id="SVGID_49_0" gradientUnits="userSpaceOnUse" gradientTransform="matrix(1 0 0 1 -186.49098 -205.72874)"  x1="0" y1="205.728735" x2="372.98195999999996" y2="205.728735">
<stop offset="0%" style="stop-color:#7900FF;stop-opacity: 1"/>
<stop offset="50%" style="stop-color:#AE6FFF;stop-opacity: 1"/>
<stop offset="100%" style="stop-color:#00D0E8;stop-opacity: 1"/>
</linearGradient>
<path style="stroke: rgb(0,0,0); stroke-width: 0; stroke-dasharray: none; stroke-linecap: butt; stroke-dashoffset: 0; stroke-linejoin: miter; stroke-miterlimit: 4; fill: url(#SVGID_49_0); fill-rule: nonzero; opacity: 1;" vector-effect="non-scaling-stroke"  transform=" translate(0, 0.000005)" d="M -149.20633 -205.72874 L 149.20636999999996 -205.72874 L 149.20636999999996 -205.62713 L 168.58054999999996 -205.62713 C 178.47220999999996 -205.62713 186.49097999999995 -197.60836 186.49097999999995 -187.7167 L 186.49097999999995 187.75722000000002 C 186.49097999999995 197.48972 178.72817999999995 205.40912000000003 169.05653999999996 205.66145 L 169.05653999999996 205.72873 L 109.13255999999996 205.72873 L 109.13255999999996 205.51273 L -19.436120000000045 40.952320000000014 L -114.06902000000005 40.952320000000014 L -114.06902000000005 186.90994 C -114.06902000000005 196.8016 -122.08779000000006 204.82037 -131.97945000000004 204.82037 L -168.58055000000004 204.82037 C -178.47221000000005 204.82037 -186.49098000000004 196.8016 -186.49098000000004 186.90994 L -186.49098000000004 -187.78940999999998 C -186.49098000000004 -192.53954999999996 -184.60399000000004 -197.09514 -181.24514000000005 -200.45399999999998 C -177.88628000000006 -203.81285999999997 -173.33069000000006 -205.69983999999997 -168.58055000000004 -205.69983999999997 L -149.20633000000004 -205.69983999999997 z M -74.67615 -29.75169 L -74.55560000000001 -29.84587 L -114.06902000000002 -80.42074 L -114.06902000000002 -29.206109999999995 L -74.24989000000002 -29.206109999999995 z M 114.06902 98.39009 L 114.06902 -130.49063999999998 L -64.55807000000001 -130.49063999999998 L 14.57407999999998 -29.20610999999998 L 105.44193999999997 -29.20610999999998 L 79.09663999999998 40.952320000000014 L 69.19371999999998 40.952320000000014 z" stroke-linecap="round" />
</g>
</svg>